<svg xmlns="http://www.w3.org/2000/svg" xmlns:xlink="http://www.w3.org/1999/xlink" width="40" zoomAndPan="magnify" viewBox="0 0 30 30.000001" height="40" preserveAspectRatio="xMidYMid meet" version="1.0"><defs><clipPath id="41a5f4f348"><path d="M 20.5 20.046875 L 21.953125 20.046875 L 21.953125 21.496094 L 20.5 21.496094 Z M 20.5 20.046875 " clip-rule="nonzero"/></clipPath><clipPath id="3b6cd3ef66"><path d="M 3.386719 1.246094 L 26.613281 1.246094 L 26.613281 17 L 3.386719 17 Z M 3.386719 1.246094 " clip-rule="nonzero"/></clipPath><clipPath id="e9d5b79616"><path d="M 3.386719 13 L 26.613281 13 L 26.613281 23 L 3.386719 23 Z M 3.386719 13 " clip-rule="nonzero"/></clipPath></defs><g clip-path="url(#41a5f4f348)"><path fill="#344265" d="M 21.878906 20.433594 C 21.855469 20.332031 21.8125 20.207031 21.75 20.132812 C 21.722656 20.097656 21.6875 20.070312 21.652344 20.058594 C 21.609375 20.046875 21.5625 20.050781 21.515625 20.078125 C 21.472656 20.105469 21.429688 20.15625 21.382812 20.242188 L 21.066406 20.242188 C 21.023438 20.15625 20.976562 20.105469 20.933594 20.078125 C 20.886719 20.050781 20.84375 20.046875 20.800781 20.058594 C 20.761719 20.070312 20.730469 20.097656 20.703125 20.132812 C 20.636719 20.207031 20.59375 20.335938 20.574219 20.4375 C 20.527344 20.496094 20.503906 20.5625 20.503906 20.636719 L 20.503906 20.675781 C 20.503906 20.839844 20.628906 20.980469 20.808594 21.039062 C 20.800781 21.070312 20.800781 21.101562 20.796875 21.128906 C 20.796875 21.21875 20.824219 21.296875 20.875 21.355469 C 20.925781 21.421875 21.007812 21.464844 21.109375 21.484375 C 21.144531 21.492188 21.183594 21.496094 21.226562 21.496094 C 21.269531 21.496094 21.308594 21.492188 21.34375 21.484375 C 21.445312 21.464844 21.523438 21.421875 21.578125 21.355469 C 21.628906 21.296875 21.652344 21.21875 21.652344 21.128906 C 21.652344 21.101562 21.648438 21.070312 21.644531 21.039062 C 21.703125 21.019531 21.757812 20.992188 21.800781 20.957031 C 21.894531 20.882812 21.949219 20.785156 21.949219 20.675781 L 21.949219 20.636719 C 21.949219 20.5625 21.921875 20.492188 21.878906 20.433594 Z M 21.578125 20.140625 C 21.589844 20.128906 21.605469 20.128906 21.613281 20.132812 C 21.628906 20.136719 21.648438 20.152344 21.664062 20.175781 C 21.695312 20.210938 21.722656 20.265625 21.742188 20.320312 C 21.726562 20.308594 21.707031 20.300781 21.6875 20.289062 C 21.648438 20.199219 21.597656 20.15625 21.542969 20.25 C 21.527344 20.246094 21.507812 20.246094 21.492188 20.246094 C 21.523438 20.191406 21.550781 20.15625 21.578125 20.140625 Z M 20.785156 20.175781 C 20.800781 20.152344 20.820312 20.136719 20.835938 20.132812 C 20.847656 20.128906 20.859375 20.128906 20.871094 20.140625 C 20.898438 20.15625 20.929688 20.191406 20.960938 20.246094 C 20.945312 20.246094 20.929688 20.246094 20.917969 20.25 C 20.863281 20.160156 20.816406 20.199219 20.777344 20.285156 C 20.753906 20.296875 20.730469 20.308594 20.707031 20.320312 C 20.726562 20.265625 20.753906 20.210938 20.785156 20.175781 Z M 21.492188 21.3125 C 21.457031 21.359375 21.398438 21.394531 21.320312 21.410156 C 21.289062 21.414062 21.257812 21.417969 21.226562 21.417969 C 21.191406 21.417969 21.160156 21.414062 21.132812 21.410156 C 21.054688 21.394531 20.996094 21.359375 20.957031 21.3125 C 20.917969 21.265625 20.898438 21.203125 20.898438 21.132812 C 20.898438 21.109375 20.902344 21.085938 20.90625 21.0625 C 20.9375 21.070312 20.96875 21.070312 21 21.070312 L 21.1875 21.070312 L 21.1875 21.140625 C 21.167969 21.144531 21.148438 21.152344 21.132812 21.164062 C 21.109375 21.183594 21.09375 21.210938 21.09375 21.242188 C 21.09375 21.269531 21.109375 21.296875 21.132812 21.316406 C 21.15625 21.335938 21.191406 21.347656 21.226562 21.347656 C 21.265625 21.347656 21.296875 21.335938 21.324219 21.316406 C 21.347656 21.296875 21.363281 21.269531 21.363281 21.242188 C 21.363281 21.210938 21.347656 21.183594 21.324219 21.164062 C 21.308594 21.152344 21.289062 21.144531 21.269531 21.140625 L 21.269531 21.070312 L 21.449219 21.070312 C 21.484375 21.070312 21.515625 21.070312 21.546875 21.0625 C 21.550781 21.085938 21.554688 21.109375 21.554688 21.132812 C 21.554688 21.203125 21.535156 21.265625 21.492188 21.3125 Z M 21.226562 21.167969 C 21.253906 21.167969 21.277344 21.175781 21.292969 21.1875 C 21.3125 21.203125 21.320312 21.21875 21.320312 21.242188 C 21.320312 21.261719 21.3125 21.28125 21.292969 21.292969 C 21.277344 21.308594 21.253906 21.316406 21.226562 21.316406 C 21.203125 21.316406 21.179688 21.308594 21.160156 21.292969 C 21.144531 21.28125 21.132812 21.261719 21.132812 21.242188 C 21.132812 21.21875 21.144531 21.203125 21.160156 21.1875 C 21.179688 21.175781 21.203125 21.167969 21.226562 21.167969 Z M 21.847656 20.675781 C 21.847656 20.765625 21.804688 20.84375 21.730469 20.898438 C 21.660156 20.957031 21.558594 20.992188 21.449219 20.992188 L 21 20.992188 C 20.78125 20.992188 20.601562 20.851562 20.601562 20.675781 L 20.601562 20.636719 C 20.601562 20.550781 20.648438 20.472656 20.71875 20.414062 C 20.792969 20.359375 20.890625 20.324219 21 20.324219 L 21.449219 20.324219 C 21.667969 20.324219 21.847656 20.464844 21.847656 20.636719 Z M 21.683594 20.644531 L 21.683594 20.671875 C 21.683594 20.734375 21.648438 20.792969 21.597656 20.835938 C 21.542969 20.875 21.46875 20.902344 21.390625 20.902344 L 21.0625 20.902344 C 20.902344 20.902344 20.769531 20.796875 20.769531 20.671875 L 20.769531 20.644531 C 20.769531 20.578125 20.804688 20.523438 20.855469 20.480469 C 20.910156 20.4375 20.980469 20.414062 21.0625 20.414062 L 21.390625 20.414062 C 21.550781 20.414062 21.683594 20.515625 21.683594 20.644531 Z M 21.683594 20.644531 " fill-opacity="1" fill-rule="evenodd"/><path fill="#11cde3" d="M 21.292969 21.1875 C 21.3125 21.203125 21.320312 21.21875 21.320312 21.242188 C 21.320312 21.261719 21.3125 21.28125 21.292969 21.292969 C 21.277344 21.308594 21.253906 21.316406 21.226562 21.316406 C 21.203125 21.316406 21.179688 21.308594 21.160156 21.292969 C 21.144531 21.28125 21.132812 21.261719 21.132812 21.242188 C 21.132812 21.21875 21.144531 21.203125 21.160156 21.1875 C 21.179688 21.175781 21.203125 21.167969 21.226562 21.167969 C 21.253906 21.167969 21.277344 21.175781 21.292969 21.1875 Z M 21.066406 20.59375 C 21.050781 20.585938 21.03125 20.582031 21.015625 20.582031 C 20.996094 20.582031 20.980469 20.585938 20.960938 20.59375 C 20.925781 20.609375 20.898438 20.636719 20.894531 20.679688 C 20.894531 20.683594 20.894531 20.6875 20.898438 20.691406 C 20.902344 20.695312 20.90625 20.695312 20.914062 20.695312 L 20.917969 20.695312 C 20.925781 20.695312 20.933594 20.6875 20.933594 20.683594 C 20.9375 20.652344 20.957031 20.632812 20.980469 20.621094 C 20.992188 20.617188 21.003906 20.613281 21.015625 20.613281 C 21.027344 20.613281 21.039062 20.617188 21.046875 20.621094 C 21.074219 20.628906 21.09375 20.65625 21.097656 20.695312 C 21.097656 20.703125 21.105469 20.707031 21.117188 20.707031 L 21.121094 20.707031 C 21.125 20.707031 21.128906 20.707031 21.132812 20.703125 C 21.136719 20.699219 21.136719 20.695312 21.136719 20.691406 C 21.132812 20.640625 21.101562 20.605469 21.066406 20.59375 Z M 21.492188 20.59375 C 21.476562 20.585938 21.460938 20.582031 21.441406 20.582031 C 21.425781 20.582031 21.40625 20.585938 21.390625 20.59375 C 21.355469 20.605469 21.324219 20.640625 21.320312 20.691406 C 21.316406 20.695312 21.320312 20.699219 21.324219 20.703125 C 21.328125 20.707031 21.332031 20.707031 21.335938 20.707031 L 21.339844 20.707031 C 21.351562 20.707031 21.359375 20.703125 21.359375 20.695312 C 21.363281 20.65625 21.382812 20.628906 21.410156 20.621094 C 21.417969 20.617188 21.429688 20.613281 21.441406 20.613281 C 21.453125 20.613281 21.464844 20.617188 21.476562 20.621094 C 21.5 20.632812 21.519531 20.652344 21.523438 20.683594 C 21.523438 20.6875 21.53125 20.695312 21.539062 20.695312 L 21.542969 20.695312 C 21.550781 20.695312 21.554688 20.695312 21.558594 20.691406 C 21.5625 20.6875 21.5625 20.683594 21.5625 20.679688 C 21.558594 20.636719 21.53125 20.609375 21.492188 20.59375 Z M 21.492188 20.59375 " fill-opacity="1" fill-rule="nonzero"/></g><path fill="#60fdfc" d="M 20.605469 14.839844 C 20.605469 15.675781 19.925781 16.359375 19.085938 16.359375 C 18.246094 16.359375 17.566406 15.679688 17.566406 14.839844 C 17.566406 14 18.246094 13.320312 19.085938 13.320312 C 19.925781 13.320312 20.605469 14 20.605469 14.839844 Z M 20.605469 14.839844 " fill-opacity="1" fill-rule="nonzero"/><path fill="#60fdfc" d="M 10.914062 13.320312 C 11.753906 13.320312 12.433594 14 12.433594 14.839844 C 12.433594 15.675781 11.753906 16.359375 10.914062 16.359375 C 10.074219 16.359375 9.394531 15.675781 9.394531 14.839844 C 9.394531 14 10.074219 13.320312 10.914062 13.320312 Z M 10.914062 13.320312 " fill-opacity="1" fill-rule="nonzero"/><g clip-path="url(#3b6cd3ef66)"><path fill="#60fdfc" d="M 24.199219 16.457031 L 26.605469 16.457031 C 26.605469 16.402344 26.613281 16.351562 26.613281 16.300781 L 26.613281 13.375 C 26.613281 10.007812 23.871094 7.265625 20.503906 7.265625 L 15.542969 7.265625 L 15.542969 4.648438 C 16.242188 4.417969 16.75 3.769531 16.75 2.996094 C 16.75 2.03125 15.964844 1.246094 15 1.246094 C 14.035156 1.246094 13.25 2.03125 13.25 2.996094 C 13.25 3.769531 13.757812 4.421875 14.453125 4.648438 L 14.453125 7.269531 L 9.496094 7.269531 C 6.949219 7.269531 4.765625 8.835938 3.847656 11.050781 L 6.621094 11.050781 C 7.296875 10.214844 8.335938 9.675781 9.496094 9.675781 L 20.507812 9.675781 C 22.546875 9.675781 24.207031 11.335938 24.207031 13.375 L 24.207031 16.300781 C 24.207031 16.355469 24.199219 16.40625 24.199219 16.457031 Z M 14.851562 2.242188 C 14.851562 2.515625 14.628906 2.738281 14.355469 2.738281 C 14.082031 2.738281 13.859375 2.515625 13.859375 2.242188 C 13.859375 1.96875 14.082031 1.746094 14.355469 1.746094 C 14.628906 1.746094 14.851562 1.96875 14.851562 2.242188 Z M 14.851562 2.242188 " fill-opacity="1" fill-rule="nonzero"/></g><g clip-path="url(#e9d5b79616)"><path fill="#60fdfc" d="M 3.398438 13.21875 L 5.804688 13.21875 C 5.804688 13.273438 5.796875 13.324219 5.796875 13.375 L 5.796875 16.300781 C 5.796875 18.339844 7.457031 20 9.496094 20 L 20.507812 20 C 21.667969 20 22.703125 19.460938 23.382812 18.621094 L 26.15625 18.621094 C 25.238281 20.839844 23.054688 22.40625 20.507812 22.40625 L 9.496094 22.40625 C 6.128906 22.40625 3.386719 19.667969 3.386719 16.300781 L 3.386719 13.375 C 3.386719 13.320312 3.394531 13.269531 3.398438 13.21875 Z M 3.398438 13.21875 " fill-opacity="1" fill-rule="nonzero"/></g><path fill="#60fdfc" d="M 19.121094 23.277344 L 19.121094 27.160156 L 18.410156 27.785156 L 15.355469 25.847656 L 15.355469 24.585938 L 18.410156 22.652344 Z M 19.121094 23.277344 " fill-opacity="1" fill-rule="nonzero"/><path fill="#60fdfc" d="M 14.648438 24.585938 L 14.648438 25.847656 L 11.589844 27.785156 L 10.878906 27.160156 L 10.878906 23.277344 L 11.589844 22.652344 Z M 14.648438 24.585938 " fill-opacity="1" fill-rule="nonzero"/><path fill="#60fdfc" d="M 14.75 24.601562 L 15.253906 24.601562 L 15.253906 25.832031 L 14.75 25.832031 Z M 14.75 24.601562 " fill-opacity="1" fill-rule="nonzero"/></svg>