<svg xmlns="http://www.w3.org/2000/svg" xmlns:xlink="http://www.w3.org/1999/xlink" width="175" zoomAndPan="magnify" viewBox="0 0 131.25 30.000001" height="40" preserveAspectRatio="xMidYMid meet" version="1.0"><defs><g/></defs><g fill="#d9d9d9" fill-opacity="1"><g transform="translate(9.877627, 24.158931)"><g><path d="M 23.46875 0 L 18.390625 0 L 16.546875 -5.640625 L 7.171875 -5.640625 L 5.34375 0 L 0.375 0 L 8.8125 -24.46875 L 15.03125 -24.46875 Z M 11.625 -19.359375 L 8.484375 -9.703125 L 15.203125 -9.703125 L 12.046875 -19.359375 Z M 11.625 -19.359375 "/></g></g></g><g fill="#d9d9d9" fill-opacity="1"><g transform="translate(33.710263, 24.158931)"><g><path d="M 10.84375 0.34375 C 9.144531 0.34375 7.632812 0.132812 6.3125 -0.28125 C 4.988281 -0.695312 3.882812 -1.242188 3 -1.921875 C 2.125 -2.597656 1.453125 -3.347656 0.984375 -4.171875 L 3.640625 -7.40625 L 4.0625 -7.40625 C 4.800781 -6.3125 5.734375 -5.441406 6.859375 -4.796875 C 7.992188 -4.148438 9.320312 -3.828125 10.84375 -3.828125 C 12.132812 -3.828125 13.109375 -4.097656 13.765625 -4.640625 C 14.421875 -5.191406 14.75 -5.945312 14.75 -6.90625 C 14.75 -7.488281 14.644531 -7.972656 14.4375 -8.359375 C 14.226562 -8.753906 13.878906 -9.085938 13.390625 -9.359375 C 12.898438 -9.640625 12.234375 -9.882812 11.390625 -10.09375 L 8.25 -10.8125 C 6.050781 -11.3125 4.410156 -12.144531 3.328125 -13.3125 C 2.253906 -14.476562 1.71875 -15.992188 1.71875 -17.859375 C 1.71875 -19.234375 2.0625 -20.445312 2.75 -21.5 C 3.445312 -22.550781 4.457031 -23.363281 5.78125 -23.9375 C 7.101562 -24.519531 8.6875 -24.8125 10.53125 -24.8125 C 12.40625 -24.8125 14.015625 -24.5625 15.359375 -24.0625 C 16.710938 -23.570312 17.847656 -22.8125 18.765625 -21.78125 L 16.375 -18.5 L 15.96875 -18.5 C 15.269531 -19.226562 14.472656 -19.773438 13.578125 -20.140625 C 12.691406 -20.503906 11.675781 -20.6875 10.53125 -20.6875 C 9.195312 -20.6875 8.179688 -20.453125 7.484375 -19.984375 C 6.796875 -19.515625 6.453125 -18.863281 6.453125 -18.03125 C 6.453125 -17.257812 6.691406 -16.644531 7.171875 -16.1875 C 7.660156 -15.738281 8.503906 -15.382812 9.703125 -15.125 L 12.921875 -14.453125 C 15.296875 -13.953125 17.015625 -13.101562 18.078125 -11.90625 C 19.148438 -10.707031 19.6875 -9.144531 19.6875 -7.21875 C 19.6875 -5.6875 19.359375 -4.351562 18.703125 -3.21875 C 18.046875 -2.082031 17.050781 -1.203125 15.71875 -0.578125 C 14.394531 0.0351562 12.769531 0.34375 10.84375 0.34375 Z M 10.84375 0.34375 "/></g></g></g><g fill="#d9d9d9" fill-opacity="1"><g transform="translate(54.716389, 24.158931)"><g><path d="M 3.171875 0 L 3.171875 -24.46875 L 8.015625 -24.46875 L 8.015625 -14.46875 L 8.546875 -14.46875 L 16.71875 -24.46875 L 21.671875 -24.46875 L 21.671875 -24.046875 L 12.671875 -12.921875 L 22.609375 -0.421875 L 22.609375 0 L 17.140625 0 L 8.546875 -10.5625 L 8.015625 -10.5625 L 8.015625 0 Z M 3.171875 0 "/></g></g></g><g fill="#d9d9d9" fill-opacity="1"><g transform="translate(77.311403, 24.158931)"><g/></g></g><g fill="#d9d9d9" fill-opacity="1"><g transform="translate(85.389445, 24.158931)"><g><path d="M 23.46875 0 L 18.390625 0 L 16.546875 -5.640625 L 7.171875 -5.640625 L 5.34375 0 L 0.375 0 L 8.8125 -24.46875 L 15.03125 -24.46875 Z M 11.625 -19.359375 L 8.484375 -9.703125 L 15.203125 -9.703125 L 12.046875 -19.359375 Z M 11.625 -19.359375 "/></g></g></g><g fill="#d9d9d9" fill-opacity="1"><g transform="translate(109.222082, 24.158931)"><g><path d="M 8.015625 0 L 3.171875 0 L 3.171875 -24.46875 L 8.015625 -24.46875 Z M 8.015625 0 "/></g></g></g></svg>